REM DIRINDEX 1\2\6,1\2\7,1\2\8,1\3\9,1\3\10,1\3\11,1\4\12,1\4\13,1\4\14,1\5\15,1\5\16,1\5\17,1\5\18
REM DIRNAME cjc019,folder01,folder02,folder03,folder04,folder05,folder06,folder07,folder08,folder09,folder10,folder11,folder12,folder13,folder14,folder15,folder16,folder17
TITLE ""
FILE "2Q_t_0531-0548.mp3" MP3
  TRACK 01 AUDIO
    TITLE "13:cjc019_3120"
    INDEX 01 00:00:00
  TRACK 02 AUDIO
    TITLE "0:"
    INDEX 01 00:01:01
  TRACK 03 AUDIO
    TITLE "14:cjc019_3121"
    INDEX 01 00:01:60
  TRACK 04 AUDIO
    TITLE "0:"
    INDEX 01 00:04:31
  TRACK 05 AUDIO
    TITLE "13:cjc019_3122"
    INDEX 01 00:05:05
  TRACK 06 AUDIO
    TITLE "0:"
    INDEX 01 00:06:22
  TRACK 07 AUDIO
    TITLE "14:cjc019_3123"
    INDEX 01 00:07:09
  TRACK 08 AUDIO
    TITLE "0:"
    INDEX 01 00:12:05
  TRACK 09 AUDIO
    TITLE "13:cjc019_3124"
    INDEX 01 00:12:61
  TRACK 10 AUDIO
    TITLE "0:"
    INDEX 01 00:14:06
  TRACK 11 AUDIO
    TITLE "14:cjc019_3125"
    INDEX 01 00:14:56
  TRACK 12 AUDIO
    TITLE "0:"
    INDEX 01 00:17:02
  TRACK 13 AUDIO
    TITLE "13:cjc019_3126"
    INDEX 01 00:17:55
  TRACK 14 AUDIO
    TITLE "0:"
    INDEX 01 00:18:58
  TRACK 15 AUDIO
    TITLE "14:cjc019_3127"
    INDEX 01 00:19:42
  TRACK 16 AUDIO
    TITLE "0:"
    INDEX 01 00:22:34
  TRACK 17 AUDIO
    TITLE "13:cjc019_3128"
    INDEX 01 00:23:10
  TRACK 18 AUDIO
    TITLE "0:"
    INDEX 01 00:24:47
  TRACK 19 AUDIO
    TITLE "14:cjc019_3129"
    INDEX 01 00:25:31
  TRACK 20 AUDIO
    TITLE "0:"
    INDEX 01 00:29:19
  TRACK 21 AUDIO
    TITLE "13:cjc019_3130"
    INDEX 01 00:29:70
  TRACK 22 AUDIO
    TITLE "0:"
    INDEX 01 00:31:08
  TRACK 23 AUDIO
    TITLE "14:cjc019_3131"
    INDEX 01 00:31:67
  TRACK 24 AUDIO
    TITLE "0:"
    INDEX 01 00:36:44
  TRACK 25 AUDIO
    TITLE "13:cjc019_3132"
    INDEX 01 00:37:20
  TRACK 26 AUDIO
    TITLE "0:"
    INDEX 01 00:38:47
  TRACK 27 AUDIO
    TITLE "14:cjc019_3133"
    INDEX 01 00:39:35
  TRACK 28 AUDIO
    TITLE "0:"
    INDEX 01 00:43:50
  TRACK 29 AUDIO
    TITLE "13:cjc019_3134"
    INDEX 01 00:44:30
  TRACK 30 AUDIO
    TITLE "0:"
    INDEX 01 00:45:49
  TRACK 31 AUDIO
    TITLE "14:cjc019_3135"
    INDEX 01 00:46:31
  TRACK 32 AUDIO
    TITLE "0:"
    INDEX 01 00:50:07
  TRACK 33 AUDIO
    TITLE "13:cjc019_3136"
    INDEX 01 00:50:66
  TRACK 34 AUDIO
    TITLE "0:"
    INDEX 01 00:52:28
  TRACK 35 AUDIO
    TITLE "14:cjc019_3137"
    INDEX 01 00:53:06
  TRACK 36 AUDIO
    TITLE "0:"
    INDEX 01 00:58:11
  TRACK 37 AUDIO
    TITLE "13:cjc019_3138"
    INDEX 01 00:58:64
  TRACK 38 AUDIO
    TITLE "0:"
    INDEX 01 01:00:04
  TRACK 39 AUDIO
    TITLE "14:cjc019_3139"
    INDEX 01 01:00:60
  TRACK 40 AUDIO
    TITLE "0:"
    INDEX 01 01:03:71
  TRACK 41 AUDIO
    TITLE "13:cjc019_3140"
    INDEX 01 01:04:45
  TRACK 42 AUDIO
    TITLE "0:"
    INDEX 01 01:05:71
  TRACK 43 AUDIO
    TITLE "14:cjc019_3141"
    INDEX 01 01:06:51
  TRACK 44 AUDIO
    TITLE "0:"
    INDEX 01 01:08:07
  TRACK 45 AUDIO
    TITLE "13:cjc019_3142"
    INDEX 01 01:08:62
  TRACK 46 AUDIO
    TITLE "0:"
    INDEX 01 01:10:16
  TRACK 47 AUDIO
    TITLE "14:cjc019_3143"
    INDEX 01 01:10:71
  TRACK 48 AUDIO
    TITLE "0:"
    INDEX 01 01:12:46
  TRACK 49 AUDIO
    TITLE "13:cjc019_3144"
    INDEX 01 01:13:22
  TRACK 50 AUDIO
    TITLE "0:"
    INDEX 01 01:14:29
  TRACK 51 AUDIO
    TITLE "14:cjc019_3145"
    INDEX 01 01:15:15
  TRACK 52 AUDIO
    TITLE "0:"
    INDEX 01 01:16:46
  TRACK 53 AUDIO
    TITLE "13:cjc019_3146"
    INDEX 01 01:17:37
  TRACK 54 AUDIO
    TITLE "0:"
    INDEX 01 01:18:41
  TRACK 55 AUDIO
    TITLE "14:cjc019_3147"
    INDEX 01 01:19:23
  TRACK 56 AUDIO
    TITLE "0:"
    INDEX 01 01:21:70
  TRACK 57 AUDIO
    TITLE "13:cjc019_3148"
    INDEX 01 01:22:35
  TRACK 58 AUDIO
    TITLE "0:"
    INDEX 01 01:23:46
  TRACK 59 AUDIO
    TITLE "14:cjc019_3149"
    INDEX 01 01:24:30
  TRACK 60 AUDIO
    TITLE "0:"
    INDEX 01 01:27:50
  TRACK 61 AUDIO
    TITLE "13:cjc019_3150"
    INDEX 01 01:28:22
  TRACK 62 AUDIO
    TITLE "0:"
    INDEX 01 01:29:31
  TRACK 63 AUDIO
    TITLE "14:cjc019_3151"
    INDEX 01 01:30:17
  TRACK 64 AUDIO
    TITLE "0:"
    INDEX 01 01:33:05
  TRACK 65 AUDIO
    TITLE "13:cjc019_3152"
    INDEX 01 01:33:56
  TRACK 66 AUDIO
    TITLE "0:"
    INDEX 01 01:35:02
  TRACK 67 AUDIO
    TITLE "14:cjc019_3153"
    INDEX 01 01:35:55
  TRACK 68 AUDIO
    TITLE "0:"
    INDEX 01 01:37:13
  TRACK 69 AUDIO
    TITLE "13:cjc019_3154"
    INDEX 01 01:37:66
  TRACK 70 AUDIO
    TITLE "0:"
    INDEX 01 01:39:14
  TRACK 71 AUDIO
    TITLE "14:cjc019_3155"
    INDEX 01 01:39:68
  TRACK 72 AUDIO
    TITLE "0:"
    INDEX 01 01:41:44
